<?xml version="1.0" standalone="no"?>
<!DOCTYPE svg PUBLIC "-//W3C//DTD SVG 20010904//EN"
 "http://www.w3.org/TR/2001/REC-SVG-20010904/DTD/svg10.dtd">
<svg version="1.0" xmlns="http://www.w3.org/2000/svg"
 width="1143.000000pt" height="1280.000000pt" viewBox="0 0 1143.000000 1280.000000"
 preserveAspectRatio="xMidYMid meet">
<g transform="translate(0.000000,1280.000000) scale(0.100000,-0.100000)"
fill="#000000" stroke="none">
<path d="M8619 12790 c-218 -35 -430 -124 -604 -254 -253 -190 -397 -403 -420
-622 -5 -48 -18 -90 -42 -137 -50 -101 -89 -226 -118 -382 -101 -545 -105
-744 -30 -1625 38 -445 64 -672 96 -815 59 -271 76 -523 44 -673 -16 -79 -57
-185 -83 -219 l-17 -23 -88 30 c-366 126 -958 202 -1317 171 -376 -33 -467
-64 -900 -304 -248 -137 -466 -216 -999 -362 -342 -93 -495 -141 -576 -180
-38 -19 -151 -87 -250 -151 -234 -152 -324 -203 -448 -255 -122 -51 -209 -96
-383 -199 -72 -43 -157 -92 -190 -108 -32 -17 -115 -67 -184 -111 -107 -70
-129 -80 -155 -75 -16 3 -88 31 -160 61 -71 31 -167 69 -213 84 -85 30 -261
69 -305 69 -36 0 -71 -46 -128 -167 -26 -57 -50 -103 -54 -103 -3 0 -32 13
-65 30 -162 82 -374 150 -466 150 l-51 0 -6 -42 c-6 -46 6 -125 24 -161 6 -12
33 -58 60 -103 26 -44 54 -101 60 -126 11 -41 10 -48 -9 -80 -12 -19 -46 -57
-75 -85 -76 -72 -107 -112 -107 -136 0 -12 23 -49 50 -82 28 -33 50 -62 50
-65 -1 -10 -226 -110 -249 -110 -12 0 -74 20 -137 45 -62 25 -124 45 -138 45
-49 0 -46 -71 6 -178 36 -73 45 -81 193 -168 61 -36 122 -75 138 -88 l27 -22
-115 -69 c-63 -39 -115 -73 -115 -76 0 -3 40 -45 90 -93 97 -94 192 -160 296
-207 63 -28 253 -87 334 -104 49 -10 517 -248 683 -346 75 -45 155 -98 178
-117 22 -19 107 -112 188 -206 251 -290 381 -401 658 -560 142 -81 540 -284
848 -433 105 -50 246 -128 315 -173 147 -95 279 -162 370 -187 89 -24 345 -25
407 -1 l42 17 55 -227 c65 -264 118 -508 148 -677 20 -106 22 -159 23 -460 1
-320 3 -345 24 -420 53 -192 236 -491 395 -649 96 -95 162 -140 268 -184 58
-24 77 -26 233 -29 165 -4 172 -5 235 -34 l65 -31 210 75 210 75 160 12 c88 7
209 23 268 36 133 30 179 26 284 -27 l77 -39 27 26 c37 35 40 56 17 104 -26
53 -55 74 -134 100 l-65 22 -69 138 c-38 75 -92 168 -120 205 l-51 68 30 31
c48 49 43 86 -16 129 -27 19 -63 39 -82 46 -50 17 -186 13 -365 -9 -231 -29
-414 -27 -535 5 -124 33 -214 72 -300 129 -69 46 -71 49 -71 89 0 101 -32 215
-75 267 -6 8 -19 52 -27 96 -9 45 -35 128 -59 185 -90 221 -88 212 -89 434 0
117 -7 246 -15 310 -8 61 -15 115 -15 122 0 6 23 -4 51 -22 84 -57 379 -140
629 -176 127 -19 176 -21 397 -17 l252 5 7 -44 c3 -24 4 -103 2 -176 -4 -123
-9 -148 -66 -365 -34 -128 -62 -247 -62 -265 0 -17 9 -51 20 -74 16 -36 24
-43 47 -43 40 0 119 26 152 49 l29 21 20 -49 c17 -41 18 -56 10 -96 -7 -33 -7
-60 2 -93 36 -148 271 -364 490 -451 57 -23 134 -42 237 -59 84 -14 155 -24
157 -21 9 8 -15 104 -35 142 l-20 40 28 -7 c57 -15 295 -18 372 -6 42 6 135
31 206 55 124 42 137 44 285 51 158 7 180 4 333 -42 14 -5 17 1 17 40 0 62
-28 91 -139 146 -50 24 -91 49 -91 55 0 5 11 42 25 80 13 39 25 81 25 95 0 32
58 252 69 263 4 4 27 -1 52 -12 51 -24 117 -27 144 -7 16 12 17 17 6 44 -17
40 -95 114 -152 143 -93 47 -299 32 -659 -48 -174 -38 -230 -47 -370 -54 -272
-13 -298 -12 -305 11 -4 11 -24 40 -45 65 -35 41 -37 47 -29 82 14 60 11 205
-6 259 -8 27 -15 70 -15 95 0 73 -27 144 -81 215 -27 37 -49 67 -47 69 2 1 37
10 78 20 41 10 174 47 295 82 121 35 312 90 425 123 113 33 318 85 455 115
575 128 722 182 1065 389 455 273 689 444 900 656 262 262 393 485 479 812 68
257 86 416 85 753 0 305 -12 443 -64 751 -94 547 -224 842 -672 1512 -453 679
-837 1451 -943 1897 -48 201 -67 424 -46 520 6 28 9 30 51 28 38 -2 50 -9 99
-57 85 -82 271 -228 419 -327 245 -164 386 -219 609 -239 189 -16 441 -74 535
-123 92 -47 143 -51 253 -17 61 19 78 30 133 86 105 106 129 184 97 309 -39
151 -158 267 -353 345 -164 65 -327 194 -591 468 -194 202 -269 289 -302 354
-29 57 -109 309 -109 345 0 17 -7 39 -16 48 -14 14 -16 30 -11 97 9 108 -26
474 -53 562 -51 164 -263 395 -497 540 -143 90 -283 150 -441 192 -108 28
-320 40 -423 24z"/>
</g>
</svg>
